<svg width="158" height="48" viewBox="0 0 158 48" fill="none" xmlns="http://www.w3.org/2000/svg">
<path d="M8.18707 17.7273C8.18707 12.4555 12.4635 8.18182 17.7387 8.18182C23.0139 8.18182 27.2902 12.4555 27.2902 17.7273V37.0909H35.4773V17.7273C35.4773 7.93677 27.5355 0 17.7387 0C7.94187 0 0 7.93677 0 17.7273V45.2727H21.8322V23.7273C21.8322 23.426 21.5878 23.1818 21.2864 23.1818H14.1909C13.8895 23.1818 13.6451 23.426 13.6451 23.7273V37.0909H8.18707L8.18707 17.7273Z" fill="#002E2E"/>
<path d="M17.7387 20.4545C19.9995 20.4545 21.8322 18.623 21.8322 16.3636C21.8322 14.1043 19.9995 12.2727 17.7387 12.2727C15.4779 12.2727 13.6451 14.1043 13.6451 16.3636C13.6451 18.623 15.4779 20.4545 17.7387 20.4545Z" fill="#002E2E"/>
<path d="M45.6373 37C45.4507 37 45.304 36.9467 45.1973 36.84C45.0907 36.7333 45.0373 36.5867 45.0373 36.4V9.60001C45.0373 9.41335 45.0907 9.26668 45.1973 9.16001C45.304 9.05335 45.4507 9.00001 45.6373 9.00001H51.9573C52.144 9.00001 52.2907 9.05335 52.3973 9.16001C52.504 9.26668 52.5573 9.41335 52.5573 9.60001V36.4C52.5573 36.5867 52.504 36.7333 52.3973 36.84C52.2907 36.9467 52.144 37 51.9573 37H45.6373Z" fill="#002E2E"/>
<path d="M67.9023 15.88C69.2357 15.88 70.4357 16.1733 71.5023 16.76C72.569 17.3467 73.409 18.2133 74.0223 19.36C74.6623 20.48 74.9823 21.8133 74.9823 23.36V36.4C74.9823 36.5867 74.929 36.7333 74.8223 36.84C74.7157 36.9467 74.569 37 74.3823 37H68.0623C67.8757 37 67.729 36.9467 67.6223 36.84C67.5157 36.7333 67.4623 36.5867 67.4623 36.4V25C67.4623 24.2 67.249 23.56 66.8223 23.08C66.4223 22.5733 65.889 22.32 65.2223 22.32C64.529 22.32 63.969 22.5733 63.5423 23.08C63.1423 23.56 62.9423 24.2 62.9423 25V36.4C62.9423 36.5867 62.889 36.7333 62.7823 36.84C62.6757 36.9467 62.529 37 62.3423 37H56.0223C55.8357 37 55.689 36.9467 55.5823 36.84C55.4757 36.7333 55.4223 36.5867 55.4223 36.4V16.8C55.4223 16.6133 55.4757 16.4667 55.5823 16.36C55.689 16.2533 55.8357 16.2 56.0223 16.2H62.3423C62.529 16.2 62.6757 16.2533 62.7823 16.36C62.889 16.4667 62.9423 16.6133 62.9423 16.8V18.24C62.9423 18.3467 62.969 18.4133 63.0223 18.44C63.0757 18.4667 63.1157 18.44 63.1423 18.36C64.1557 16.7067 65.7423 15.88 67.9023 15.88Z" fill="#002E2E"/>
<path d="M86.8126 37.32C83.7993 37.32 81.4126 36.7333 79.6526 35.56C77.9193 34.3867 77.0526 32.8267 77.0526 30.88V30.52C77.0526 30.3333 77.106 30.1867 77.2126 30.08C77.3193 29.9733 77.466 29.92 77.6526 29.92H83.6526C84.0526 29.92 84.2526 30.0667 84.2526 30.36C84.2526 30.7867 84.4793 31.1333 84.9326 31.4C85.4126 31.6667 86.026 31.8 86.7726 31.8C87.3593 31.8 87.826 31.72 88.1726 31.56C88.546 31.3733 88.7326 31.12 88.7326 30.8C88.7326 30.4267 88.5193 30.1733 88.0926 30.04C87.666 29.88 86.906 29.7067 85.8126 29.52C84.7993 29.3867 83.8926 29.2267 83.0926 29.04C82.2926 28.8533 81.5193 28.5733 80.7726 28.2C78.4793 27.08 77.3326 25.32 77.3326 22.92C77.3326 20.76 78.1726 19.0533 79.8526 17.8C81.5326 16.52 83.746 15.88 86.4926 15.88C88.3593 15.88 89.986 16.1867 91.3726 16.8C92.786 17.3867 93.8793 18.2267 94.6526 19.32C95.426 20.4133 95.8126 21.68 95.8126 23.12C95.8126 23.4133 95.6126 23.56 95.2126 23.56H89.4126C89.0126 23.56 88.8126 23.4133 88.8126 23.12C88.8126 22.6667 88.6126 22.32 88.2126 22.08C87.8126 21.8133 87.2793 21.68 86.6126 21.68C85.9993 21.68 85.4926 21.7867 85.0926 22C84.7193 22.1867 84.5326 22.4533 84.5326 22.8C84.5326 23.2267 84.786 23.52 85.2926 23.68C85.7993 23.84 86.6126 24 87.7326 24.16C87.866 24.1867 88.3726 24.2667 89.2526 24.4C90.1593 24.5333 91.026 24.7467 91.8526 25.04C93.2926 25.5467 94.386 26.2533 95.1326 27.16C95.906 28.04 96.2926 29.2 96.2926 30.64C96.2926 32.8267 95.4393 34.4933 93.7326 35.64C92.026 36.76 89.7193 37.32 86.8126 37.32Z" fill="#002E2E"/>
<path d="M101.996 14.8C100.902 14.8 99.9958 14.4533 99.2758 13.76C98.5824 13.04 98.2358 12.1333 98.2358 11.04C98.2358 9.92001 98.5824 9.01335 99.2758 8.32001C99.9958 7.62668 100.902 7.28001 101.996 7.28001C103.089 7.28001 103.982 7.62668 104.676 8.32001C105.396 9.01335 105.756 9.92001 105.756 11.04C105.756 12.1067 105.396 13 104.676 13.72C103.982 14.44 103.089 14.8 101.996 14.8ZM98.7958 37C98.6091 37 98.4624 36.9467 98.3558 36.84C98.2491 36.7333 98.1958 36.5867 98.1958 36.4V16.8C98.1958 16.6133 98.2491 16.4667 98.3558 16.36C98.4624 16.2533 98.6091 16.2 98.7958 16.2H105.116C105.302 16.2 105.449 16.2533 105.556 16.36C105.662 16.4667 105.716 16.6133 105.716 16.8V36.4C105.716 36.5867 105.662 36.7333 105.556 36.84C105.449 36.9467 105.302 37 105.116 37H98.7958Z" fill="#002E2E"/>
<path d="M121.232 9.60001C121.232 9.41335 121.285 9.26668 121.392 9.16001C121.499 9.05335 121.645 9.00001 121.832 9.00001H128.152C128.339 9.00001 128.485 9.05335 128.592 9.16001C128.699 9.26668 128.752 9.41335 128.752 9.60001V36.4C128.752 36.5867 128.699 36.7333 128.592 36.84C128.485 36.9467 128.339 37 128.152 37H121.832C121.645 37 121.499 36.9467 121.392 36.84C121.285 36.7333 121.232 36.5867 121.232 36.4V35.2C121.232 35.12 121.205 35.0667 121.152 35.04C121.099 35.0133 121.045 35.04 120.992 35.12C120.005 36.5867 118.459 37.32 116.352 37.32C114.565 37.32 112.952 36.76 111.512 35.64C110.099 34.4933 109.099 32.9467 108.512 31C108.112 29.6667 107.912 28.1733 107.912 26.52C107.912 24.6 108.205 22.8933 108.792 21.4C109.432 19.7733 110.432 18.4533 111.792 17.44C113.152 16.4 114.779 15.88 116.672 15.88C118.619 15.88 120.059 16.4933 120.992 17.72C121.045 17.7733 121.099 17.8 121.152 17.8C121.205 17.7733 121.232 17.72 121.232 17.64V9.60001ZM120.632 29.52C121.032 28.7467 121.232 27.7867 121.232 26.64C121.232 25.36 121.019 24.3333 120.592 23.56C120.112 22.7333 119.419 22.32 118.512 22.32C117.552 22.32 116.845 22.76 116.392 23.64C115.992 24.3867 115.792 25.3867 115.792 26.64C115.792 27.84 115.992 28.8133 116.392 29.56C116.872 30.44 117.579 30.88 118.512 30.88C119.445 30.88 120.152 30.4267 120.632 29.52Z" fill="#002E2E"/>
<path d="M143.196 15.92C144.103 15.92 144.823 16.0933 145.356 16.44C145.596 16.5733 145.689 16.8267 145.636 17.2L144.676 23.36C144.649 23.5733 144.569 23.7067 144.436 23.76C144.329 23.8133 144.169 23.8133 143.956 23.76C143.476 23.6533 143.049 23.6 142.676 23.6C142.276 23.6 141.903 23.64 141.556 23.72C140.863 23.8533 140.263 24.1467 139.756 24.6C139.276 25.0267 139.036 25.6133 139.036 26.36V36.4C139.036 36.5867 138.983 36.7333 138.876 36.84C138.769 36.9467 138.623 37 138.436 37H132.116C131.929 37 131.783 36.9467 131.676 36.84C131.569 36.7333 131.516 36.5867 131.516 36.4V16.8C131.516 16.6133 131.569 16.4667 131.676 16.36C131.783 16.2533 131.929 16.2 132.116 16.2H138.436C138.623 16.2 138.769 16.2533 138.876 16.36C138.983 16.4667 139.036 16.6133 139.036 16.8V17.76C139.036 17.84 139.063 17.8933 139.116 17.92C139.169 17.9467 139.209 17.9333 139.236 17.88C140.249 16.5733 141.569 15.92 143.196 15.92Z" fill="#002E2E"/>
<path d="M151.479 5.86401C152.343 5.86401 153.135 6.07201 153.855 6.48801C154.575 6.90401 155.143 7.47201 155.559 8.19201C155.975 8.89601 156.183 9.67201 156.183 10.52C156.183 11.384 155.975 12.176 155.559 12.896C155.143 13.616 154.575 14.184 153.855 14.6C153.135 15.016 152.343 15.224 151.479 15.224C150.615 15.224 149.815 15.016 149.079 14.6C148.359 14.184 147.791 13.616 147.375 12.896C146.959 12.176 146.751 11.384 146.751 10.52C146.751 9.67201 146.959 8.89601 147.375 8.19201C147.807 7.47201 148.383 6.90401 149.103 6.48801C149.823 6.07201 150.615 5.86401 151.479 5.86401ZM151.479 14.336C152.183 14.336 152.823 14.168 153.399 13.832C153.991 13.496 154.455 13.04 154.791 12.464C155.127 11.872 155.295 11.224 155.295 10.52C155.295 9.83201 155.127 9.20001 154.791 8.62401C154.455 8.04801 153.991 7.59201 153.399 7.25601C152.823 6.92001 152.183 6.75201 151.479 6.75201C150.775 6.75201 150.127 6.92001 149.535 7.25601C148.959 7.59201 148.503 8.04801 148.167 8.62401C147.831 9.20001 147.663 9.83201 147.663 10.52C147.663 11.224 147.831 11.872 148.167 12.464C148.503 13.04 148.959 13.496 149.535 13.832C150.127 14.168 150.775 14.336 151.479 14.336ZM152.991 9.68001C152.991 9.93601 152.935 10.16 152.823 10.352C152.711 10.544 152.559 10.68 152.367 10.76C152.303 10.808 152.279 10.856 152.295 10.904L152.919 12.416L152.943 12.512C152.943 12.64 152.871 12.704 152.727 12.704H152.415C152.287 12.704 152.199 12.64 152.151 12.512L151.551 10.976C151.535 10.928 151.503 10.904 151.455 10.904H151.071C151.007 10.904 150.975 10.936 150.975 11V12.464C150.975 12.624 150.895 12.704 150.735 12.704H150.471C150.311 12.704 150.231 12.624 150.231 12.464V8.64801C150.231 8.48801 150.311 8.40801 150.471 8.40801H151.743C152.111 8.40801 152.407 8.52801 152.631 8.76801C152.871 9.00801 152.991 9.31201 152.991 9.68001ZM151.071 9.05601C151.007 9.05601 150.975 9.08801 150.975 9.15201V10.232C150.975 10.296 151.007 10.328 151.071 10.328H151.623C151.815 10.328 151.967 10.272 152.079 10.16C152.191 10.032 152.247 9.88001 152.247 9.70401C152.247 9.49601 152.191 9.33601 152.079 9.22401C151.967 9.11201 151.815 9.05601 151.623 9.05601H151.071Z" fill="#002E2E"/>
</svg>
